<svg enable-background="new 0 0 370 370" height="370px"
    version="1.0" viewBox="0 0 370 370" width="370px" x="0px" xmlns="http://www.w3.org/2000/svg"
    y="0px" xml:space="preserve">

    <g fill="none"
        stroke="#ffffff" stroke-miterlimit="10" stroke-width="25" transform="translate(0,370) scale(0.100000,-0.100000)">
	<path d="M1689 2955 c-155 -57 -236 -193 -209 -349 7 -36 33 -107 65 -172 30
-62 55 -122 55 -135 0 -13 -12 -51 -25 -84 -14 -33 -25 -66 -25 -72 0 -9 -22
-13 -76 -13 -113 0 -150 13 -239 85 -98 80 -172 120 -261 141 -102 24 -190 14
-281 -31 -110 -55 -163 -133 -163 -243 0 -117 95 -245 218 -293 61 -24 128
-27 377 -18 l120 4 78 -39 c87 -43 85 -37 43 -131 -35 -77 -67 -107 -168 -161
-123 -64 -225 -163 -256 -247 -32 -84 -29 -150 9 -226 104 -208 422 -219 579
-19 44 55 72 123 106 258 22 90 26 97 71 135 26 22 65 56 87 76 l40 36 65 -55
c83 -70 97 -91 116 -174 45 -197 92 -295 170 -348 77 -53 147 -73 240 -68 173
10 294 128 295 288 0 136 -88 239 -285 336 -62 30 -123 66 -135 79 -12 13 -35
60 -50 104 l-27 80 90 47 90 46 216 2 216 1 65 31 c122 58 179 140 180 255 0
118 -69 214 -189 261 -43 16 -78 22 -151 22 -83 1 -102 -2 -152 -26 -60 -28
-135 -78 -236 -158 -77 -61 -119 -75 -206 -65 -58 6 -66 9 -66 27 0 12 -14 52
-32 90 l-31 68 48 118 c43 103 49 128 53 207 3 75 0 100 -18 148 -29 78 -98
147 -173 175 -67 25 -180 29 -238 7z"/>
</g>
</svg>
