<svg enable-background="new 0 0 370 370" height="370px"
    version="1.0" viewBox="0 0 370 370" width="370px" x="0px" xmlns="http://www.w3.org/2000/svg"
    y="0px" xml:space="preserve">

    <g fill="none"
        stroke="#ffffff" stroke-miterlimit="10" stroke-width="25" transform="translate(0,370) scale(0.100000,-0.100000)">
	<path d="M2011 2737 c-45 -21 -82 -54 -181 -163 -95 -103 -184 -127 -430 -112
-159 9 -218 -1 -270 -48 -76 -69 -90 -174 -36 -275 18 -35 47 -91 65 -123 22
-42 31 -72 31 -107 0 -59 -18 -82 -150 -189 -145 -118 -227 -215 -300 -360
-45 -88 -53 -196 -20 -283 62 -165 289 -273 436 -208 79 35 118 67 190 157 98
122 199 184 298 184 76 0 129 -51 204 -195 42 -79 108 -151 167 -180 31 -15
61 -20 130 -20 80 0 97 3 147 29 147 75 301 306 285 428 -6 44 -46 93 -127
153 -57 42 -90 86 -97 131 -5 31 -1 39 39 78 34 32 75 55 174 95 336 138 445
237 445 404 0 112 -31 154 -150 203 -86 36 -145 32 -263 -16 -156 -64 -198
-56 -198 40 0 58 -32 184 -60 240 -28 55 -92 124 -134 144 -49 23 -141 20
-195 -7z"/>
</g>
</svg>
