<svg enable-background="new 0 0 370 370" height="370px"
    version="1.0" viewBox="0 0 370 370" width="370px" x="0px" xmlns="http://www.w3.org/2000/svg"
    y="0px" xml:space="preserve">

    <g fill="none"
        stroke="#ffffff" stroke-miterlimit="10" stroke-width="25" transform="translate(0,370) scale(0.100000,-0.100000)">
	<path d="M1630 2785 l-165 -165 -247 0 -248 0 0 -242 0 -243 -170 -163 c-94
-90 -170 -170 -170 -177 0 -7 76 -87 170 -177 l170 -163 0 -242 0 -243 248 0
247 0 165 -165 c91 -91 169 -165 175 -165 6 0 84 74 175 165 l165 165 247 0
248 0 0 243 0 242 170 163 c94 90 170 170 170 177 0 7 -76 87 -170 177 l-170
163 0 243 0 242 -248 0 -247 0 -165 165 c-91 91 -169 165 -175 165 -6 0 -84
-74 -175 -165z"/>
</g>
</svg>
