<svg enable-background="new 0 0 370 370" height="370px"
    version="1.0" viewBox="0 0 370 370" width="370px" x="0px" xmlns="http://www.w3.org/2000/svg"
    y="0px" xml:space="preserve">

    <g fill="none"
        stroke="#ffffff" stroke-miterlimit="10" stroke-width="25" transform="translate(0,370) scale(0.100000,-0.100000)">
	<path d="M1195 2973 c-61 -14 -159 -50 -226 -84 -134 -69 -228 -166 -278 -287
-30 -72 -40 -238 -21 -346 68 -383 429 -936 979 -1498 85 -87 159 -158 165
-158 27 0 357 358 531 575 340 424 531 764 589 1049 21 99 21 256 0 327 -44
149 -147 264 -307 343 -273 136 -547 113 -763 -63 l-59 -48 -61 48 c-73 58
-178 112 -260 133 -58 15 -238 21 -289 9z"/>
</g>
</svg>
