<svg enable-background="new 0 0 370 370" height="370px"
    version="1.0" viewBox="0 0 370 370" width="370px" x="0px" xmlns="http://www.w3.org/2000/svg"
    y="0px" xml:space="preserve">

    <g fill="none"
        stroke="#ffffff" stroke-miterlimit="10" stroke-width="25" transform="translate(0,370) scale(0.100000,-0.100000)">
	<path d="M2190 2700 c-118 -132 -229 -255 -246 -274 l-31 -35 -62 191 c-39
117 -66 186 -70 177 -4 -8 -23 -101 -41 -206 -19 -106 -37 -193 -41 -193 -4 0
-152 95 -329 211 -177 116 -329 213 -338 216 -20 8 -33 28 200 -304 166 -238
194 -283 175 -283 -12 0 -120 7 -239 16 -120 8 -231 14 -247 12 -25 -3 -4 -20
185 -158 117 -85 210 -158 206 -161 -4 -4 -162 -36 -352 -73 -351 -68 -384
-75 -378 -81 2 -2 172 -29 378 -60 206 -30 390 -58 409 -62 l33 -6 -273 -273
c-150 -150 -270 -276 -267 -279 3 -3 181 82 396 189 l390 195 -124 -372 c-68
-204 -124 -373 -124 -375 0 -13 46 36 280 298 144 162 264 297 266 299 2 3
498 -340 626 -433 15 -11 30 -17 33 -14 3 3 -67 144 -154 314 -88 169 -159
309 -158 310 1 1 112 -11 247 -27 273 -32 270 -32 269 -21 0 4 -79 72 -174
152 -96 80 -174 148 -174 151 -1 3 108 59 242 124 260 127 252 123 246 129 -2
2 -125 20 -273 40 -148 19 -270 37 -272 39 -2 2 107 84 241 183 135 98 245
182 245 185 0 6 -76 -9 -428 -85 l-153 -33 6 26 c9 44 105 575 105 583 0 5 -3
8 -7 7 -5 0 -105 -108 -223 -239z"/>
</g>
</svg>
