<svg enable-background="new 0 0 370 370" height="370px"
    version="1.0" viewBox="0 0 370 370" width="370px" x="0px" xmlns="http://www.w3.org/2000/svg"
    y="0px" xml:space="preserve">

    <g fill="none"
        stroke="#ffffff" stroke-miterlimit="10" stroke-width="25" transform="translate(0,370) scale(0.100000,-0.100000)">
	<path d="M1603 3024 c-35 -8 -28 -20 35 -61 75 -50 198 -172 249 -248 137
-204 208 -471 184 -689 -46 -411 -306 -733 -681 -842 -52 -15 -96 -19 -220
-18 -162 1 -191 7 -357 75 -18 7 -35 10 -38 7 -10 -10 30 -80 95 -166 226
-300 606 -472 956 -433 259 29 483 137 665 320 398 400 472 1039 175 1526
-158 261 -382 427 -681 506 -78 20 -325 35 -382 23z"/>
</g>
</svg>
