<svg enable-background="new 0 0 370 370" height="370px"
    version="1.0" viewBox="0 0 370 370" width="370px" x="0px" xmlns="http://www.w3.org/2000/svg"
    y="0px" xml:space="preserve">

    <g fill="none"
        stroke="#ffffff" stroke-miterlimit="10" stroke-width="25" transform="translate(0,370) scale(0.100000,-0.100000)">
	<path d="M1853 3113 c-12 -4 -163 -163 -624 -659 -102 -109 -261 -280 -354
-379 -92 -99 -174 -195 -182 -214 -33 -77 -51 -54 573 -724 619 -665 599 -646
671 -615 19 8 152 142 329 333 164 176 415 446 559 600 143 154 268 291 278
305 9 14 17 43 17 67 0 51 25 21 -414 492 -177 190 -325 349 -331 355 -210
228 -402 429 -416 436 -18 10 -85 12 -106 3z"/>
</g>
</svg>
