<svg enable-background="new 0 0 370 370" height="370px"
    version="1.0" viewBox="0 0 370 370" width="370px" x="0px" xmlns="http://www.w3.org/2000/svg"
    y="0px" xml:space="preserve">

    <g fill="none"
        stroke="#ffffff" stroke-miterlimit="10" stroke-width="25" transform="translate(0,370) scale(0.100000,-0.100000)">
	<path d="M1811 2920 c-96 -167 -266 -335 -527 -521 -102 -73 -217 -162 -256
-198 -168 -156 -242 -326 -240 -557 2 -259 75 -460 216 -592 155 -144 339
-167 521 -65 92 51 197 167 254 280 41 81 68 44 57 -75 -20 -196 -56 -352
-103 -447 -27 -54 -99 -135 -121 -135 -26 0 -6 -23 34 -38 83 -31 469 -28 481
4 3 8 -17 38 -46 70 -98 107 -175 309 -201 527 -11 97 -9 134 9 123 5 -4 34
-44 65 -90 98 -148 227 -240 371 -267 132 -24 283 29 391 139 153 155 237 476
190 724 -39 204 -151 351 -406 533 -191 136 -256 190 -369 303 -99 101 -199
225 -244 304 -12 21 -26 38 -32 38 -5 0 -25 -27 -44 -60z"/>
</g>
</svg>
