<svg enable-background="new 0 0 370 370" height="370px"
    version="1.0" viewBox="0 0 370 370" width="370px" x="0px" xmlns="http://www.w3.org/2000/svg"
    y="0px" xml:space="preserve">

    <g fill="none"
        stroke="#ffffff" stroke-miterlimit="10" stroke-width="25" transform="translate(0,370) scale(0.100000,-0.100000)">
	<path d="M1160 3170 c-190 -34 -364 -222 -445 -480 -83 -266 -94 -569 -29
-787 66 -223 185 -366 534 -645 195 -156 287 -242 395 -372 67 -81 165 -227
206 -308 16 -32 34 -58 39 -58 5 0 24 28 41 63 69 136 232 349 384 502 50 50
160 146 245 215 328 263 450 420 521 670 22 78 24 103 23 285 0 179 -3 212
-26 310 -68 289 -185 466 -364 552 -137 65 -258 66 -393 3 -163 -77 -289 -228
-382 -457 -18 -46 -38 -83 -44 -83 -6 0 -31 46 -55 103 -99 231 -213 371 -364
446 -96 47 -181 59 -286 41z"/>
</g>
</svg>
