<svg enable-background="new 0 0 370 370" height="370px"
    version="1.0" viewBox="0 0 370 370" width="370px" x="0px" xmlns="http://www.w3.org/2000/svg"
    y="0px" xml:space="preserve">
    <g
        fill="none"
        stroke="#ffffff" stroke-miterlimit="10" stroke-width="25" transform="translate(0,370) scale(0.100000,-0.100000)">
       <path d="M1655 3084 c-103 -15 -252 -49 -328 -75 -397 -132 -668 -405 -695
-698 -20 -217 47 -391 218 -561 484 -484 1546 -484 2030 0 171 170 238 344
218 561 -27 293 -298 566 -695 698 -172 58 -277 73 -508 76 -115 2 -223 1
-240 -1z"/>
<path d="M1305 1328 c-82 -10 -185 -55 -233 -101 -79 -75 -96 -185 -43 -269
59 -93 173 -148 323 -156 123 -6 215 15 298 69 80 51 113 103 118 183 5 72
-15 120 -70 173 -42 41 -148 89 -213 97 -98 13 -111 13 -180 4z"/>
<path d="M915 666 c-17 -7 -43 -28 -58 -45 -74 -88 11 -191 158 -191 75 0 118
15 158 55 52 53 29 138 -46 174 -51 25 -163 28 -212 7z"/>
    </g>
</svg>
