<svg enable-background="new 0 0 370 370" height="370px"
    version="1.0" viewBox="0 0 370 370" width="370px" x="0px" xmlns="http://www.w3.org/2000/svg"
    y="0px" xml:space="preserve">

    <g fill="none"
        stroke="#ffffff" stroke-miterlimit="10" stroke-width="25" transform="translate(0,370) scale(0.100000,-0.100000)">
	<path d="M1817 2903 c-36 -80 -79 -214 -94 -292 -5 -25 -14 -46 -20 -48 -6 -2
-35 31 -64 74 -58 85 -214 253 -235 253 -20 0 -19 -263 1 -345 17 -70 19 -115
5 -115 -5 0 -26 12 -47 26 -76 52 -304 154 -344 154 -33 0 41 -169 135 -310
68 -102 70 -115 19 -106 -21 4 -116 9 -211 12 -128 5 -177 3 -185 -6 -17 -17
99 -124 226 -208 71 -47 102 -74 102 -87 0 -12 -8 -21 -20 -23 -82 -14 -375
-133 -375 -153 0 -22 244 -94 355 -105 87 -9 101 -30 47 -70 -95 -72 -252
-241 -252 -273 0 -26 210 -2 353 40 104 31 107 23 43 -112 -57 -121 -111 -299
-90 -299 4 0 44 20 89 45 88 48 190 119 243 168 49 47 57 31 58 -126 1 -127
19 -297 33 -297 21 0 178 226 220 318 32 68 51 68 75 0 42 -122 170 -348 188
-330 17 17 59 209 70 324 6 65 16 118 21 118 5 0 47 -36 94 -79 87 -82 249
-198 260 -187 13 12 -28 212 -63 310 -41 116 -45 142 -24 139 8 -1 67 -20 130
-42 106 -37 279 -76 289 -65 16 16 -120 206 -210 294 -34 34 -59 66 -56 74 4
9 38 15 114 20 122 7 304 45 310 63 8 24 -185 136 -306 178 -100 35 -102 57
-8 99 51 22 218 127 270 169 26 21 21 34 -15 41 -99 17 -224 27 -308 24 -92
-3 -95 -2 -98 20 -2 15 11 38 44 75 62 70 184 255 184 281 0 25 -216 -37 -346
-100 -122 -60 -132 -53 -93 61 35 105 70 365 49 365 -38 0 -246 -202 -314
-303 -26 -40 -42 -55 -48 -49 -6 6 -21 64 -34 129 -31 163 -92 333 -118 333
-7 0 -29 -35 -49 -77z"/>
</g>
</svg>
