<svg enable-background="new 0 0 370 370" height="370px"
    version="1.0" viewBox="0 0 370 370" width="370px" x="0px" xmlns="http://www.w3.org/2000/svg"
    y="0px" xml:space="preserve">

    <g fill="none"
        stroke="#ffffff" stroke-miterlimit="10" stroke-width="25" transform="translate(0,370) scale(0.100000,-0.100000)">
	<path d="M1825 3090 c-74 -16 -134 -49 -187 -102 -29 -29 -58 -62 -64 -73 -11
-19 -12 -19 -83 -1 -238 62 -454 -71 -492 -303 -5 -35 -7 -70 -5 -79 8 -26 -5
-38 -62 -56 -234 -77 -341 -342 -217 -537 62 -98 62 -96 32 -127 -78 -82 -110
-251 -67 -364 30 -80 104 -160 185 -198 35 -16 70 -30 79 -30 23 0 33 -27 39
-117 8 -99 37 -164 103 -228 106 -103 261 -137 399 -88 l40 14 25 -33 c48 -63
108 -116 162 -141 162 -77 340 -40 463 95 l55 62 55 -18 c86 -27 143 -30 215
-12 172 44 282 171 298 344 l7 74 61 22 c80 29 123 57 174 112 67 73 94 143
95 244 0 76 -3 92 -33 150 -18 36 -40 77 -49 91 -16 26 -16 28 21 78 96 130
107 265 33 404 -36 70 -79 107 -167 148 -36 16 -72 34 -80 38 -11 6 -16 32
-20 97 -9 153 -76 255 -208 316 -80 38 -190 47 -272 23 -100 -29 -92 -31 -128
29 -59 100 -167 163 -293 171 -41 2 -92 0 -114 -5z"/>
</g>
</svg>
