<svg enable-background="new 0 0 370 370" height="370px"
    version="1.0" viewBox="0 0 370 370" width="370px" x="0px" xmlns="http://www.w3.org/2000/svg"
    y="0px" xml:space="preserve">

    <g fill="none"
        stroke="#ffffff" stroke-miterlimit="10" stroke-width="25" transform="translate(0,370) scale(0.100000,-0.100000)">
	<path d="M1700 2715 c-113 -207 -212 -377 -220 -379 -8 -2 -53 -11 -100 -20
-99 -19 -314 -60 -552 -106 -93 -18 -168 -36 -168 -40 0 -4 125 -141 278 -305
152 -164 282 -307 288 -319 11 -20 2 -112 -60 -586 -21 -159 -30 -260 -22
-260 3 0 173 79 377 175 204 96 378 175 386 175 9 0 173 -75 367 -166 452
-214 416 -199 416 -173 0 11 -22 200 -50 419 -27 219 -50 404 -50 412 0 7 48
66 108 129 59 64 187 202 286 308 98 105 177 194 174 196 -4 5 -155 35 -468
95 -154 29 -287 55 -336 65 -15 3 -72 100 -225 379 -112 207 -208 375 -214
375 -5 0 -102 -168 -215 -374z"/>
</g>
</svg>
