<svg enable-background="new 0 0 370 370" height="370px"
    version="1.0" viewBox="0 0 370 370" width="370px" x="0px" xmlns="http://www.w3.org/2000/svg"
    y="0px" xml:space="preserve">

    <g fill="none"
        stroke="#ffffff" stroke-miterlimit="10" stroke-width="25" transform="translate(0,370) scale(0.100000,-0.100000)">
	<path d="M1880 2948 c0 -20 -179 -521 -189 -531 -5 -5 -106 57 -248 153 -228
156 -273 183 -273 164 0 -5 40 -130 89 -279 57 -172 86 -274 79 -280 -5 -6
-124 -11 -303 -13 -162 -2 -295 -7 -295 -11 0 -5 103 -81 229 -169 195 -138
241 -175 241 -197 0 -5 -443 -317 -457 -322 -7 -3 -13 -11 -13 -19 0 -12 49
-14 295 -14 270 0 295 -1 304 -18 7 -12 -13 -84 -75 -272 -78 -237 -90 -280
-80 -280 2 0 110 72 240 161 130 88 244 159 253 157 11 -2 45 -85 112 -275 53
-149 99 -274 102 -278 4 -3 24 43 45 102 145 413 159 448 180 447 10 0 126
-73 257 -162 130 -89 242 -162 248 -162 7 0 8 7 4 18 -35 86 -175 536 -171
548 4 12 53 14 306 14 250 0 300 2 300 14 0 8 -6 16 -12 19 -7 2 -113 75 -235
162 -175 123 -223 161 -223 178 1 17 52 58 230 182 126 88 230 163 230 168 0
4 -123 7 -272 8 -150 1 -284 4 -298 8 -14 4 -26 15 -28 26 -1 11 36 135 82
275 56 172 80 256 72 258 -7 2 -120 -70 -251 -159 -209 -141 -240 -159 -250
-145 -7 9 -41 96 -75 194 -35 97 -76 214 -92 260 -18 50 -35 82 -44 82 -8 0
-14 -6 -14 -12z"/>
</g>
</svg>
