<svg enable-background="new 0 0 370 370" height="370px"
    version="1.0" viewBox="0 0 370 370" width="370px" x="0px" xmlns="http://www.w3.org/2000/svg"
    y="0px" xml:space="preserve">

    <g fill="none"
        stroke="#ffffff" stroke-miterlimit="10" stroke-width="25" transform="translate(0,370) scale(0.100000,-0.100000)">
	<path d="M1161 2968 c-86 -43 -157 -140 -195 -267 -24 -82 -22 -285 4 -376 27
-94 69 -176 130 -255 89 -115 86 -107 61 -134 -11 -12 -21 -25 -21 -28 0 -3
-39 -44 -87 -91 -60 -59 -96 -87 -112 -87 -13 0 -51 -13 -86 -30 -81 -39 -165
-127 -194 -205 -28 -75 -28 -99 2 -91 67 19 75 19 92 -8 16 -24 16 -31 4 -74
-8 -27 -14 -92 -14 -157 1 -102 3 -114 30 -163 45 -82 123 -141 208 -157 45
-9 45 -3 10 64 -35 68 -42 173 -18 257 19 66 46 118 128 247 94 149 95 220 0
303 l-47 42 73 86 c72 85 97 100 120 72 39 -47 277 -184 385 -222 71 -25 74
-53 10 -83 -70 -33 -130 -95 -154 -157 -99 -267 152 -574 469 -574 153 0 288
46 594 204 147 76 216 106 252 110 162 19 260 59 320 129 67 79 82 201 34 286
-39 70 -132 101 -199 66 -38 -20 -38 -31 4 -75 37 -39 66 -114 66 -172 0 -130
-137 -219 -240 -157 -105 65 -136 167 -150 499 -9 210 -17 272 -45 350 -56
159 -198 249 -392 250 -320 1 -531 -258 -443 -544 22 -71 20 -86 -12 -86 -37
0 -202 60 -278 102 -88 48 -197 125 -205 145 -2 8 -1 23 5 32 5 10 6 22 2 26
-4 5 -2 5 5 2 16 -10 87 82 130 167 45 89 53 162 27 238 -10 29 -23 59 -29 67
-16 23 -87 51 -128 51 -84 0 -177 -77 -194 -161 -7 -34 -30 -49 -44 -28 -6 8
-8 68 -7 134 3 107 7 127 32 182 62 137 199 215 290 168 37 -19 46 -11 18 15
-12 12 -22 29 -22 39 0 10 -9 30 -21 45 -17 22 -28 26 -72 26 -33 0 -68 -8
-96 -22z m161 -508 c30 -30 30 -31 26 -123 -3 -80 -7 -101 -35 -157 -18 -36
-45 -81 -62 -100 -37 -44 -49 -38 -109 50 l-44 64 4 92 c2 50 7 90 12 87 4 -3
5 5 1 17 -4 14 -3 20 3 16 5 -3 13 1 16 10 4 10 2 13 -7 8 -20 -12 -2 5 39 36
55 42 114 42 156 0z"/>
</g>
</svg>
