<svg enable-background="new 0 0 370 370" height="370px"
    version="1.0" viewBox="0 0 370 370" width="370px" x="0px" xmlns="http://www.w3.org/2000/svg"
    y="0px" xml:space="preserve">

    <g fill="none"
        stroke="#ffffff" stroke-miterlimit="10" stroke-width="25" transform="translate(0,370) scale(0.100000,-0.100000)">
<path d="M590 3078 c0 -48 3 -54 30 -70 17 -10 38 -34 46 -53 19 -46 3 -83
-43 -105 -30 -14 -33 -19 -32 -60 0 -39 4 -47 31 -65 66 -42 65 -133 -2 -158
-27 -10 -30 -15 -30 -57 0 -37 4 -47 22 -55 30 -14 61 -58 61 -90 0 -28 -47
-85 -70 -85 -9 0 -13 -14 -13 -43 0 -37 5 -47 31 -66 17 -13 37 -38 45 -57 13
-31 13 -38 -3 -65 -10 -16 -30 -35 -45 -42 -24 -10 -28 -18 -28 -54 0 -37 4
-45 29 -57 29 -16 56 -65 54 -99 -2 -23 -39 -64 -65 -73 -14 -4 -18 -15 -18
-49 0 -39 4 -46 29 -59 29 -16 56 -65 54 -99 -2 -23 -39 -64 -65 -73 -14 -4
-18 -15 -18 -49 0 -40 3 -46 31 -60 37 -20 63 -74 50 -107 -10 -26 -37 -52
-63 -61 -13 -5 -18 -17 -18 -49 0 -37 4 -45 30 -60 38 -21 64 -77 51 -110 -10
-26 -37 -52 -64 -61 -13 -5 -17 -18 -17 -56 0 -45 3 -52 29 -65 29 -16 56 -65
54 -99 -2 -23 -39 -64 -65 -73 -14 -4 -18 -15 -18 -50 l0 -44 63 0 c58 0 63 2
78 29 31 53 122 53 161 0 20 -26 27 -29 79 -29 52 0 60 3 92 35 27 27 43 35
72 35 29 0 45 -8 72 -35 32 -32 40 -35 91 -35 50 0 58 3 83 32 24 30 32 33 79
33 47 0 55 -3 79 -33 25 -29 33 -32 83 -32 51 0 59 3 91 35 49 49 95 49 144 0
31 -31 41 -35 90 -35 49 0 57 3 87 35 25 26 42 35 65 35 39 0 87 -24 101 -50
9 -17 21 -20 75 -20 55 0 65 3 70 20 8 26 55 50 96 50 22 0 41 -10 66 -35 31
-31 41 -35 90 -35 49 0 57 3 87 35 25 26 42 35 65 35 41 0 88 -24 96 -50 6
-18 15 -20 81 -20 l74 0 0 50 c0 36 -4 50 -14 50 -23 0 -66 59 -66 89 0 32 31
77 60 86 17 5 20 15 20 61 0 40 -4 54 -14 54 -25 0 -66 59 -66 95 0 25 8 40
31 59 17 14 35 26 40 26 5 0 9 23 9 50 0 36 -4 50 -14 50 -25 0 -66 59 -66 95
0 25 8 40 31 59 17 14 35 26 40 26 5 0 9 23 9 50 0 36 -4 50 -14 50 -25 0 -66
59 -66 95 0 25 8 40 31 59 17 14 35 26 40 26 5 0 9 18 9 40 0 35 -6 47 -40 79
-29 27 -40 46 -40 67 0 36 24 72 56 84 20 8 24 16 24 53 0 35 -4 46 -23 56
-13 7 -31 25 -40 41 -31 51 -18 99 33 125 27 14 30 21 30 60 0 25 -4 45 -8 45
-5 0 -23 14 -40 31 -50 49 -42 113 18 144 26 14 30 21 30 60 0 35 -4 45 -20
50 -29 9 -60 58 -60 94 0 34 37 81 65 81 11 0 15 12 15 49 0 41 -4 51 -20 56
-31 10 -60 54 -60 92 0 36 36 83 65 83 12 0 15 12 15 55 l0 55 -64 0 c-60 0
-66 -2 -99 -35 -27 -27 -43 -35 -71 -35 -27 0 -46 9 -75 35 -33 31 -45 35 -90
35 -47 0 -56 -4 -85 -35 -28 -29 -40 -35 -76 -35 -36 0 -48 6 -76 35 -30 32
-38 35 -87 35 -49 0 -59 -4 -90 -35 -27 -27 -43 -35 -72 -35 -29 0 -45 8 -72
35 -31 31 -41 35 -90 35 -49 0 -57 -3 -87 -35 -25 -26 -42 -35 -65 -35 -39 0
-87 24 -101 50 -15 28 -122 29 -142 2 -45 -62 -113 -69 -165 -17 -31 31 -41
35 -88 35 -47 0 -57 -4 -88 -35 -25 -25 -44 -35 -66 -35 -40 0 -77 18 -96 47
-14 20 -23 23 -80 23 -50 0 -65 -3 -65 -14 0 -26 -50 -56 -92 -56 -32 0 -47 7
-75 35 -32 32 -40 35 -94 35 l-59 0 0 -52z"/>
</g>
</svg>
