<svg enable-background="new 0 0 370 370" height="370px"
    version="1.0" viewBox="0 0 370 370" width="370px" x="0px" xmlns="http://www.w3.org/2000/svg"
    y="0px" xml:space="preserve">

    <g fill="none"
        stroke="#ffffff" stroke-miterlimit="10" stroke-width="25" transform="translate(0,370) scale(0.100000,-0.100000)">
<path d="M542 3161 c2 -5 167 -197 368 -427 201 -230 495 -567 653 -749 159
-181 296 -331 305 -332 11 -1 127 124 323 350 168 194 461 529 650 746 189
216 345 400 347 407 3 12 -205 14 -1323 14 -785 0 -1325 -4 -1323 -9z"/>
<path d="M500 1812 c0 -610 -3 -1124 -6 -1141 -4 -19 -2 -31 4 -31 6 0 189
313 407 695 l397 696 -55 62 c-30 34 -204 233 -386 442 -182 209 -338 381
-346 383 -13 3 -15 -138 -15 -1106z"/>
<path d="M3120 2798 c-58 -67 -199 -230 -315 -362 -315 -360 -355 -407 -355
-420 1 -19 775 -1369 788 -1374 9 -3 12 260 12 1137 0 906 -3 1141 -12 1141
-7 -1 -60 -55 -118 -122z"/>
<path d="M2298 1857 c-87 -104 -411 -472 -418 -475 -4 -2 -108 111 -230 250
-122 139 -229 254 -238 256 -13 2 -48 -52 -139 -210 -461 -807 -643 -1131
-640 -1134 2 -2 564 -3 1249 -2 l1246 3 -387 677 c-212 373 -391 678 -396 678
-6 0 -27 -19 -47 -43z"/>
</g>
</svg>
