<svg enable-background="new 0 0 370 370" height="370px"
    version="1.0" viewBox="0 0 370 370" width="370px" x="0px" xmlns="http://www.w3.org/2000/svg"
    y="0px" xml:space="preserve">

    <g fill="none"
        stroke="#ffffff" stroke-miterlimit="10" stroke-width="25" transform="translate(0,370) scale(0.100000,-0.100000)">
<path d="M1803 2988 c-71 -78 -133 -257 -133 -382 0 -23 -6 -50 -12 -58 -12
-15 -19 -15 -88 8 -41 14 -101 28 -132 31 l-58 6 0 -84 c0 -89 26 -204 74
-333 26 -69 33 -106 18 -106 -4 0 -28 21 -52 46 -93 96 -267 214 -337 229 -29
6 -32 4 -38 -27 -4 -18 -9 -53 -10 -78 -2 -53 2 -52 -130 -21 -99 23 -195 28
-195 10 0 -24 63 -128 130 -214 38 -49 83 -108 100 -129 17 -22 29 -44 27 -50
-2 -6 -30 -15 -63 -22 -69 -13 -114 -30 -114 -42 0 -31 176 -160 303 -223 37
-18 70 -41 73 -51 4 -13 -25 -48 -112 -132 -77 -75 -115 -118 -111 -128 8 -21
204 -83 326 -104 131 -21 292 -15 401 16 120 34 122 35 135 16 21 -28 -11
-263 -52 -388 -24 -74 -82 -168 -103 -168 -18 0 -10 -29 9 -35 32 -10 88 20
107 57 28 55 74 226 90 338 29 206 29 205 44 203 8 0 53 -12 100 -24 112 -31
322 -33 450 -5 91 20 218 60 264 83 l28 15 -122 123 c-67 68 -120 130 -118
137 3 7 49 37 103 66 116 62 220 137 253 182 13 17 22 33 20 34 -19 12 -67 26
-108 32 -83 11 -83 28 1 131 82 100 149 199 173 257 l16 39 -77 -6 c-43 -4
-111 -16 -151 -27 -40 -11 -77 -18 -83 -15 -5 4 -9 23 -9 43 0 50 -18 112 -33
112 -21 0 -114 -47 -175 -89 -32 -22 -95 -74 -140 -116 -108 -102 -124 -92
-76 46 57 162 91 324 78 375 -9 33 -55 32 -169 -5 -57 -19 -94 -26 -101 -20
-6 5 -16 49 -23 97 -19 154 -55 258 -117 340 -29 38 -53 41 -81 10z"/>
</g>
</svg>
