<svg enable-background="new 0 0 370 370" height="370px"
    version="1.0" viewBox="0 0 370 370" width="370px" x="0px" xmlns="http://www.w3.org/2000/svg"
    y="0px" xml:space="preserve">

    <g fill="none"
        stroke="#ffffff" stroke-miterlimit="10" stroke-width="25" transform="translate(0,370) scale(0.100000,-0.100000)">
<path d="M749 2855 c-44 -24 -63 -77 -67 -196 -4 -104 -3 -109 31 -185 26 -59
41 -118 62 -237 38 -224 67 -302 123 -331 39 -20 164 -45 265 -54 l88 -7 -73
-51 c-113 -79 -193 -150 -228 -202 -31 -46 -32 -49 -26 -132 11 -166 72 -449
126 -589 35 -88 83 -163 121 -185 66 -39 169 -8 240 72 101 115 172 275 265
599 37 126 68 236 71 246 14 45 23 7 23 -93 0 -132 15 -180 55 -180 40 0 55
48 55 180 0 100 9 138 23 93 3 -10 32 -112 65 -228 70 -241 96 -314 158 -440
51 -106 114 -189 173 -229 57 -40 136 -47 183 -18 69 43 141 209 192 442 30
137 56 311 56 372 0 80 -74 164 -258 292 l-73 51 88 7 c114 10 229 34 267 56
56 32 89 123 126 354 16 97 31 154 57 212 34 76 35 81 31 185 -6 166 -39 211
-152 211 -92 0 -213 -49 -426 -174 -186 -108 -316 -264 -444 -531 -35 -71 -67
-141 -72 -154 -8 -18 -9 -6 -8 47 2 62 10 91 69 234 74 183 82 208 66 208 -6
0 -15 -10 -20 -22 -5 -13 -39 -100 -75 -194 -44 -114 -71 -171 -81 -171 -10 0
-37 57 -81 171 -36 94 -70 181 -75 194 -5 12 -14 22 -20 22 -17 0 -8 -28 66
-205 60 -143 67 -168 69 -234 2 -56 0 -68 -7 -50 -37 91 -145 299 -197 377
-117 176 -243 279 -495 404 -149 74 -273 97 -336 63z"/>
</g>
</svg>
