<svg enable-background="new 0 0 370 370" height="370px"
    version="1.0" viewBox="0 0 370 370" width="370px" x="0px" xmlns="http://www.w3.org/2000/svg"
    y="0px" xml:space="preserve">

    <g fill="none"
        stroke="#ffffff" stroke-miterlimit="10" stroke-width="25" transform="translate(0,370) scale(0.100000,-0.100000)">
        <path d="M1433 3025 c-150 -42 -242 -140 -243 -257 l0 -47 -52 27 c-185 96
-428 -67 -488 -327 -16 -67 -8 -220 14 -281 16 -44 16 -45 -11 -105 -39 -85
-45 -253 -14 -376 43 -172 143 -324 243 -369 51 -23 135 -26 183 -6 l34 15 12
-37 c41 -128 140 -241 261 -296 106 -49 167 -61 303 -61 138 0 232 23 302 74
l41 30 18 -47 c24 -59 23 -136 0 -181 -10 -19 -41 -59 -69 -88 l-50 -53 61 0
c128 0 234 89 323 269 l43 88 70 11 c103 16 173 41 241 87 107 72 165 176 168
299 l2 64 38 5 c72 10 134 70 174 168 36 89 46 161 41 304 -7 172 -43 286
-117 368 -33 37 -92 67 -130 67 -29 0 -30 1 -19 31 6 17 8 68 6 114 -6 114
-45 193 -143 291 -132 131 -333 205 -476 175 -78 -16 -156 -66 -195 -124 l-33
-48 -20 38 c-30 60 -90 113 -170 151 -69 33 -82 36 -185 39 -76 2 -128 -2
-163 -12z"/>
</g>
</svg>
