<svg enable-background="new 0 0 370 370" height="370px"
    version="1.0" viewBox="0 0 370 370" width="370px" x="0px" xmlns="http://www.w3.org/2000/svg"
    y="0px" xml:space="preserve">

    <g fill="none"
        stroke="#ffffff" stroke-miterlimit="10" stroke-width="25" transform="translate(0,370) scale(0.100000,-0.100000)">
<path d="M2635 2948 c-11 -27 -20 -93 -26 -177 -5 -74 -11 -137 -14 -140 -3
-2 -13 2 -21 11 -10 10 -19 47 -25 99 -11 102 -16 119 -34 119 -24 0 -38 -77
-31 -165 4 -44 8 -91 9 -104 1 -13 -3 -26 -9 -28 -12 -4 -15 1 -49 92 -31 82
-49 79 -53 -10 -2 -38 2 -90 9 -115 6 -25 13 -53 16 -62 10 -38 -28 -17 -49
27 -43 87 -75 29 -58 -103 6 -40 10 -80 10 -88 0 -27 -25 -14 -48 26 -29 52
-48 51 -63 -2 -9 -33 -9 -63 0 -127 13 -94 5 -117 -27 -77 -11 14 -25 26 -30
26 -13 0 -53 -84 -99 -208 -20 -54 -45 -123 -57 -154 -11 -32 -26 -58 -33 -58
-7 0 -53 62 -104 138 -76 111 -120 164 -239 282 -80 80 -174 170 -209 200 -92
80 -166 173 -213 268 -37 74 -58 100 -58 72 0 -27 -23 -4 -45 45 -26 59 -39
68 -49 33 -6 -23 -7 -22 -34 10 -31 37 -42 40 -42 12 0 -28 -11 -25 -50 15
-19 19 -38 35 -42 35 -18 0 -6 -50 25 -102 41 -67 49 -86 38 -92 -4 -3 -17 1
-27 9 -53 40 -59 0 -8 -48 41 -38 39 -62 -2 -47 -37 15 -44 12 -44 -13 0 -25
40 -72 105 -124 32 -26 37 -34 26 -42 -10 -6 -26 -5 -49 5 -95 39 -82 6 41
-104 28 -25 20 -32 -38 -32 -61 0 -73 -16 -33 -48 71 -58 75 -77 18 -86 -22
-3 -40 -10 -40 -15 0 -17 52 -51 94 -62 73 -19 71 -15 76 -145 5 -114 7 -123
46 -204 61 -128 131 -211 272 -322 34 -27 62 -55 62 -62 0 -6 -34 -41 -75 -76
-42 -36 -103 -88 -137 -117 -68 -58 -108 -75 -253 -103 -139 -28 -185 -46
-185 -73 0 -12 9 -36 20 -54 44 -72 168 -69 430 10 264 81 249 78 485 86 210
7 223 9 290 36 109 44 209 104 281 167 36 32 82 67 104 78 21 11 75 51 121 90
46 38 88 70 94 70 6 0 28 -9 50 -20 22 -11 40 -20 42 -20 8 0 -6 179 -15 202
-14 35 -51 58 -102 65 -34 5 -49 0 -103 -33 -52 -32 -71 -39 -117 -39 l-55 0
-3 51 c-3 47 1 56 62 148 36 54 117 164 180 244 198 256 251 353 281 517 24
125 10 385 -20 385 -20 0 -41 -67 -55 -175 -21 -173 -43 -189 -60 -44 -5 46
-10 130 -10 187 0 80 -3 102 -14 102 -8 0 -22 -19 -31 -42z"/>
</g>
</svg>
