<svg enable-background="new 0 0 370 370" height="370px"
    version="1.0" viewBox="0 0 370 370" width="370px" x="0px" xmlns="http://www.w3.org/2000/svg"
    y="0px" xml:space="preserve">

    <g fill="none"
        stroke="#ffffff" stroke-miterlimit="10" stroke-width="25" transform="translate(0,370) scale(0.100000,-0.100000)">
<path d="M1615 2955 c-287 -46 -548 -171 -728 -349 -179 -178 -267 -378 -267
-611 0 -344 205 -641 570 -825 94 -47 249 -103 323 -116 20 -3 40 -10 42 -14
9 -15 -56 -202 -100 -290 -24 -47 -62 -106 -85 -132 l-42 -48 41 0 c133 0 355
164 515 381 l49 66 73 7 c218 18 483 110 656 227 209 142 353 338 408 553 27
108 27 274 0 382 -101 397 -501 705 -1003 773 -104 14 -352 12 -452 -4z"/>

</g>
</svg>
