<svg enable-background="new 0 0 370 370" height="370px"
    version="1.0" viewBox="0 0 370 370" width="370px" x="0px" xmlns="http://www.w3.org/2000/svg"
    y="0px" xml:space="preserve">

    <g fill="none"
        stroke="#ffffff" stroke-miterlimit="10" stroke-width="25" transform="translate(0,370) scale(0.100000,-0.100000)">
	<path d="M917 2958 c-146 -194 -265 -468 -303 -697 -24 -149 -15 -405 19 -551
119 -500 410 -865 867 -1084 119 -57 313 -126 355 -126 42 0 236 69 355 126
457 219 748 584 867 1084 34 146 43 402 19 551 -34 207 -135 451 -263 639 -67
98 -57 95 -203 59 -84 -20 -119 -23 -315 -23 -197 0 -230 2 -320 23 -125 30
-155 30 -280 0 -90 -21 -123 -23 -320 -23 -195 0 -231 3 -315 23 -52 13 -105
25 -116 28 -16 4 -28 -4 -47 -29z"/>
</g>
</svg>
