<svg enable-background="new 0 0 370 370" height="370px"
    version="1.0" viewBox="0 0 370 370" width="370px" x="0px" xmlns="http://www.w3.org/2000/svg"
    y="0px" xml:space="preserve">

    <g fill="none"
        stroke="#ffffff" stroke-miterlimit="10" stroke-width="25" transform="translate(0,370) scale(0.100000,-0.100000)">
	<path d="M929 2808 c-101 -106 -213 -224 -248 -261 l-65 -68 51 -97 c80 -151
107 -238 107 -352 0 -91 -3 -103 -67 -290 -78 -230 -92 -300 -84 -430 9 -179
97 -368 232 -505 144 -146 302 -195 686 -214 162 -7 168 -9 223 -39 l56 -32
56 32 c55 30 61 32 223 39 384 19 542 68 686 214 135 137 223 326 232 505 8
130 -6 200 -84 430 -64 187 -67 199 -67 290 0 114 27 201 107 352 l51 97 -65
68 c-314 330 -433 453 -440 453 -5 0 -31 -16 -57 -35 -27 -19 -80 -49 -118
-67 -58 -28 -83 -33 -155 -36 -78 -4 -93 -1 -162 28 -42 17 -104 49 -137 71
-33 21 -65 39 -70 39 -5 0 -37 -18 -70 -39 -33 -22 -95 -54 -137 -71 -69 -29
-84 -32 -162 -28 -72 3 -97 8 -155 36 -38 18 -91 48 -118 67 -26 19 -52 35
-57 35 -4 0 -91 -87 -192 -192z"/>
</g>
</svg>
