<svg enable-background="new 0 0 370 370" height="370px"
    version="1.0" viewBox="0 0 370 370" width="370px" x="0px" xmlns="http://www.w3.org/2000/svg"
    y="0px" xml:space="preserve">

    <g fill="none"
        stroke="#ffffff" stroke-miterlimit="10" stroke-width="25" transform="translate(0,370) scale(0.100000,-0.100000)">
	<path d="M832 2894 c-34 -24 -52 -68 -52 -127 0 -57 -29 10 739 -1697 129
-285 192 -413 212 -432 41 -39 97 -39 138 -1 22 21 149 293 490 1052 426 945
461 1028 461 1078 0 30 -7 67 -15 83 -33 64 34 60 -1005 60 -841 0 -948 -2
-968 -16z"/>
</g>
</svg>
