<svg enable-background="new 0 0 370 370" height="370px"
    version="1.0" viewBox="0 0 370 370" width="370px" x="0px" xmlns="http://www.w3.org/2000/svg"
    y="0px" xml:space="preserve">

    <g fill="none"
        stroke="#ffffff" stroke-miterlimit="10" stroke-width="25" transform="translate(0,370) scale(0.100000,-0.100000)">
	<path d="M1605 2870 c-232 -47 -430 -153 -596 -319 -47 -47 -106 -115 -131
-151 -96 -135 -171 -321 -198 -483 -13 -80 -13 -294 0 -374 67 -413 360 -763
760 -908 293 -105 655 -83 935 58 155 77 328 226 427 367 96 135 171 321 198
483 13 80 13 294 0 374 -67 413 -360 763 -760 908 -182 66 -442 84 -635 45z"/>
</g>
</svg>
